<svg xmlns="http://www.w3.org/2000/svg" xmlns:xlink="http://www.w3.org/1999/xlink" width="500" zoomAndPan="magnify" viewBox="0 0 375 374.999991" height="500" preserveAspectRatio="xMidYMid meet" version="1.0"><defs><g/></defs><g fill="#1dbe67" fill-opacity="1"><g transform="translate(1.967164, 287.169435)"><g><path d="M 267.273438 -193.363281 C 263.453125 -203.453125 257.453125 -217.363281 250.636719 -229.089844 L 228.816406 -222.816406 C 235.089844 -210.273438 241.089844 -196.363281 244.363281 -185.726562 Z M 240 -184.910156 C 236.183594 -194.453125 230.183594 -208.363281 223.363281 -220.636719 L 201.546875 -214.363281 C 208.363281 -201.273438 213.816406 -188.453125 217.089844 -177.273438 Z M 149.726562 20.183594 C 223.089844 20.183594 252.546875 10.363281 252.546875 -59.183594 L 252.546875 -184.363281 L 214.636719 -172.363281 C 211.636719 -181.910156 208.089844 -190.636719 203.726562 -200.453125 L 151.910156 -200.453125 L 151.910156 -220.363281 L 63.273438 -220.363281 L 63.273438 -200.453125 L 20.183594 -200.453125 L 20.183594 -120.816406 L 59.183594 -120.816406 C 59.183594 -95.453125 42.546875 -67.910156 1.363281 -52.910156 L 60.546875 22.636719 C 96.546875 6.816406 121.089844 -17.726562 135.546875 -47.183594 Z M 167.726562 -70.089844 C 167.726562 -61.910156 159 -58.910156 140.453125 -58.363281 C 148.089844 -78 151.636719 -99.273438 151.636719 -120.816406 L 167.726562 -120.816406 Z M 167.726562 -70.089844 "/></g></g></g><g fill="#1dbe67" fill-opacity="1"><g transform="translate(173.096405, 305.186034)"><g><path d="M 179.300781 -78.773438 L 185.179688 -229.269531 L 110.226562 -229.269531 L 116.105469 -78.773438 Z M 186.355469 0 L 186.355469 -66.136719 L 109.34375 -66.136719 L 109.34375 0 Z M 186.355469 0 "/></g></g></g></svg>